<?xml version="1.0" encoding="UTF-8"?>
<svg id="Laag_1" data-name="Laag 1" xmlns="http://www.w3.org/2000/svg" xmlns:xlink="http://www.w3.org/1999/xlink" viewBox="0 0 253.67 131.53">
  <defs>
    <style>
      .cls-1 {
        fill: url(#Naamloos_verloop_2-2);
      }

      .cls-1, .cls-2, .cls-3, .cls-4, .cls-5, .cls-6 {
        stroke-width: 0px;
      }

      .cls-2 {
        fill: url(#Naamloos_verloop_2);
      }

      .cls-3 {
        fill: #0c9eff;
      }

      .cls-4 {
        fill: none;
      }

      .cls-7 {
        clip-path: url(#clippath-1);
      }

      .cls-5 {
        fill: #ff0cef;
      }

      .cls-8 {
        clip-path: url(#clippath);
      }

      .cls-6 {
        fill: #fbcf13;
      }
    </style>
    <linearGradient id="Naamloos_verloop_2" data-name="Naamloos verloop 2" x1="-349.66" y1="119.23" x2="-348.63" y2="118.4" gradientTransform="translate(32337.89 6924.98) scale(92 -58)" gradientUnits="userSpaceOnUse">
      <stop offset="0" stop-color="#8f1ebf"/>
      <stop offset="1" stop-color="#480f60"/>
    </linearGradient>
    <clipPath id="clippath">
      <rect class="cls-4" x="199.15" y="5.47" width="17.05" height="45.93"/>
    </clipPath>
    <linearGradient id="Naamloos_verloop_2-2" data-name="Naamloos verloop 2" x1="-352.64" y1="117.97" x2="-351.61" y2="117.13" gradientTransform="translate(32450.92 6924.98) scale(92 -58)" xlink:href="#Naamloos_verloop_2"/>
    <clipPath id="clippath-1">
      <rect class="cls-4" x="34.63" y="79.36" width="22.73" height="45.94"/>
    </clipPath>
  </defs>
  <path id="Subtraction_4-2" data-name="Subtraction 4-2" class="cls-2" d="m230.11,58h-68.44V23.98L185.64,0h68.03v34.44l-23.56,23.56h0Z"/>
  <g id="Group_571" data-name="Group 571">
    <g class="cls-8">
      <g id="Group_570" data-name="Group 570">
        <path id="Path_84" data-name="Path 84" class="cls-3" d="m202.03,37.26h-.89c-.99.1-1.89-.62-1.99-1.61-.01-.13-.01-.26,0-.39v-14.18c-.04-1.47,1.11-2.7,2.59-2.75.04,0,.09,0,.13,0,2.21-.02,4.43,0,6.64,0,1.55,0,3.09,0,4.64,0,1.51-.17,2.87.92,3.04,2.43.02.2.02.4,0,.6v13.91c.09,1.01-.65,1.91-1.67,2-.1,0-.19,0-.29,0-.23,0-.46,0-.68.02-.03,0-.06.03-.16.08v11.86c0,1.52-.67,2.18-2.18,2.18h-7.17c-1.01.11-1.92-.62-2.03-1.63-.01-.13-.01-.26,0-.4,0-3.72,0-7.45,0-11.17v-.95"/>
        <path id="Path_85" data-name="Path 85" class="cls-3" d="m212.87,10.93c-.02,2.99-2.46,5.41-5.46,5.39-2.99-.02-5.41-2.46-5.39-5.46.02-2.99,2.46-5.41,5.46-5.39.02,0,.04,0,.06,0,2.98.04,5.37,2.48,5.33,5.46,0,0,0,0,0,0"/>
      </g>
    </g>
  </g>
  <path id="Subtraction_11-2" data-name="Subtraction 11-2" class="cls-1" d="m68.44,131.53H0v-34.02l23.97-23.98h68.03v34.44l-23.56,23.56h0Z"/>
  <g id="Group_569" data-name="Group 569">
    <g class="cls-7">
      <g id="Group_568" data-name="Group 568">
        <path id="Path_82" data-name="Path 82" class="cls-5" d="m50.54,113.63v1.29c0,2.85,0,5.69-.02,8.54.03.98-.74,1.79-1.72,1.82-.02,0-.05,0-.07,0-1.83.02-3.65.02-5.48,0-.99.01-1.8-.78-1.82-1.77,0-.05,0-.1,0-.14,0-1.88,0-3.76,0-5.64,0-1.16-.03-2.32.01-3.48.02-.52-.16-.65-.66-.63-1.12.04-2.25.02-3.37,0-1.44.1-2.7-.99-2.79-2.44-.02-.3.01-.6.09-.89.93-3.84,1.92-7.66,2.88-11.49.37-1.45.73-2.89,1.11-4.34.24-1.4,1.51-2.38,2.92-2.26h8.64c1.46-.16,2.78.86,3,2.31,1.13,4.42,2.26,8.84,3.38,13.27.19.76.4,1.53.59,2.29.47,1.41-.29,2.94-1.71,3.42-.33.11-.68.16-1.03.13-1.3,0-2.59,0-3.97,0"/>
        <path id="Path_83" data-name="Path 83" class="cls-5" d="m51.4,84.83c-.03,2.99-2.48,5.4-5.47,5.37-2.99-.03-5.4-2.48-5.37-5.47.03-2.99,2.48-5.4,5.47-5.37.02,0,.04,0,.05,0,2.98.04,5.36,2.49,5.32,5.47h0"/>
      </g>
    </g>
  </g>
  <path class="cls-6" d="m0,128.35v3.18h68.44l3.01-3.01c-23.82-.06-47.63-.11-71.45-.17Z"/>
</svg>