<?xml version="1.0" encoding="UTF-8"?>
<svg id="Laag_1" data-name="Laag 1" xmlns="http://www.w3.org/2000/svg" viewBox="0 0 45.91 38.43">
  <defs>
    <style>
      .cls-1 {
        fill: #fff;
        stroke-width: 0px;
      }
    </style>
  </defs>
  <path class="cls-1" d="m16.03,25.12c.16.64.29,1.26.47,1.88.03.09.25.17.38.17,1.75.02,3.49.02,5.24.02,5.78,0,11.56.01,17.35.02,1.26,0,2.1,1.08,1.73,2.23-.23.72-.86,1.17-1.67,1.17-2.05,0-4.1,0-6.15,0-5.95,0-11.89-.01-17.84-.02-1.23,0-1.8-.45-2.1-1.67-.81-3.28-1.61-6.56-2.41-9.84-1.25-5.1-2.51-10.2-3.75-15.3-.07-.28-.18-.35-.45-.35-1.68,0-3.37,0-5.05-.02-1.26-.01-2.07-1.11-1.68-2.26C.33.48.94,0,1.67,0,3.96,0,6.25,0,8.54.03c.85,0,1.46.53,1.67,1.37.33,1.29.65,2.58.95,3.88.07.32.19.42.52.42,4.78,0,9.55,0,14.33,0,6.02,0,12.04.01,18.06.02,1.34,0,2.12,1.01,1.76,2.3-1.17,4.22-2.34,8.45-3.51,12.67-.22.79-.72,1.24-1.54,1.35-2.74.34-5.49.68-8.23,1.02-3.57.44-7.13.88-10.7,1.33-1.86.23-3.72.46-5.57.69-.07,0-.14.03-.25.05Zm-.83-3.38c.07.01.1.02.12.02,3.47-.43,6.93-.85,10.4-1.28,4.38-.54,8.75-1.09,13.13-1.62.34-.04.49-.15.58-.49.8-2.96,1.63-5.91,2.45-8.86.03-.11.05-.23.09-.38H12.1c1.04,4.22,2.06,8.41,3.09,12.62Z"/>
  <path class="cls-1" d="m35.89,31.81c1.83,0,3.32,1.46,3.33,3.29.01,1.83-1.49,3.34-3.32,3.34-1.83,0-3.3-1.48-3.3-3.31,0-1.83,1.47-3.31,3.3-3.31Z"/>
  <path class="cls-1" d="m22.21,35.15c-.04,1.87-1.53,3.32-3.37,3.28-1.82-.04-3.3-1.57-3.25-3.37.05-1.86,1.54-3.29,3.4-3.26,1.81.03,3.26,1.54,3.23,3.34Z"/>
</svg>