<?xml version="1.0" encoding="UTF-8"?>
<svg id="Laag_1" data-name="Laag 1" xmlns="http://www.w3.org/2000/svg" xmlns:xlink="http://www.w3.org/1999/xlink" viewBox="0 0 168 58">
  <defs>
    <style>
      .cls-1 {
        fill: url(#Naamloos_verloop_2);
      }

      .cls-1, .cls-2, .cls-3, .cls-4 {
        stroke-width: 0px;
      }

      .cls-2 {
        fill: #0c9eff;
      }

      .cls-3 {
        fill: none;
      }

      .cls-5 {
        clip-path: url(#clippath-1);
      }

      .cls-4 {
        fill: #ff0cef;
      }

      .cls-6 {
        clip-path: url(#clippath);
      }
    </style>
    <linearGradient id="Naamloos_verloop_2" data-name="Naamloos verloop 2" x1="-422.34" y1="85.4" x2="-421.31" y2="84.56" gradientTransform="translate(70967.08 4962.69) scale(168 -58)" gradientUnits="userSpaceOnUse">
      <stop offset="0" stop-color="#8f1ebf"/>
      <stop offset="1" stop-color="#480f60"/>
    </linearGradient>
    <clipPath id="clippath">
      <rect class="cls-3" x="49.03" y="6.31" width="22.73" height="45.94"/>
    </clipPath>
    <clipPath id="clippath-1">
      <rect class="cls-3" x="92.79" y="5.75" width="17.05" height="45.93"/>
    </clipPath>
  </defs>
  <path id="Subtraction_8-2" data-name="Subtraction 8-2" class="cls-1" d="m141.94,58H0v-31.93l.48-.51L26.03,0h141.97v31.86l-.48.55-25.59,25.59Z"/>
  <g id="Group_573" data-name="Group 573">
    <g class="cls-6">
      <g id="Group_568" data-name="Group 568">
        <path id="Path_82" data-name="Path 82" class="cls-4" d="m64.95,40.59v1.29c0,2.85,0,5.69-.02,8.54.03.98-.74,1.79-1.72,1.82-.02,0-.05,0-.07,0-1.83.02-3.65.02-5.48,0-.99.01-1.8-.78-1.82-1.77,0-.05,0-.1,0-.14,0-1.88,0-3.76,0-5.64,0-1.16-.03-2.32.01-3.48.02-.52-.16-.65-.66-.63-1.12.04-2.25.02-3.37,0-1.44.1-2.7-.99-2.79-2.44-.02-.3.01-.6.09-.89.93-3.84,1.92-7.66,2.88-11.49.37-1.45.73-2.89,1.11-4.34.24-1.4,1.51-2.38,2.92-2.26h8.64c1.46-.16,2.78.86,3,2.31,1.13,4.42,2.26,8.84,3.38,13.27.19.76.4,1.53.59,2.29.47,1.41-.29,2.94-1.71,3.42-.33.11-.68.16-1.03.13-1.3,0-2.59,0-3.97,0"/>
        <path id="Path_83" data-name="Path 83" class="cls-4" d="m65.81,11.78c-.03,2.99-2.48,5.4-5.47,5.37-2.99-.03-5.4-2.48-5.37-5.47.03-2.99,2.48-5.4,5.47-5.37.02,0,.04,0,.05,0,2.98.04,5.36,2.49,5.32,5.47h0"/>
      </g>
    </g>
  </g>
  <g id="Group_572" data-name="Group 572">
    <g class="cls-5">
      <g id="Group_570" data-name="Group 570">
        <path id="Path_84" data-name="Path 84" class="cls-2" d="m95.67,37.54h-.89c-.99.1-1.89-.62-1.99-1.61-.01-.13-.01-.26,0-.39v-14.18c-.04-1.47,1.11-2.7,2.59-2.75.04,0,.09,0,.13,0,2.21-.02,4.43,0,6.64,0,1.55,0,3.09,0,4.64,0,1.51-.17,2.87.92,3.04,2.43.02.2.02.4,0,.6v13.91c.09,1.01-.65,1.91-1.67,2-.1,0-.19,0-.29,0-.23,0-.46,0-.68.02-.03,0-.06.03-.16.08v11.86c0,1.52-.67,2.18-2.18,2.18h-7.17c-1.01.11-1.92-.62-2.03-1.63-.01-.13-.01-.26,0-.4,0-3.72,0-7.45,0-11.17v-.95"/>
        <path id="Path_85" data-name="Path 85" class="cls-2" d="m106.51,11.21c-.02,2.99-2.46,5.41-5.46,5.39-2.99-.02-5.41-2.46-5.39-5.46.02-2.99,2.46-5.41,5.46-5.39.02,0,.04,0,.06,0,2.98.04,5.37,2.48,5.33,5.46,0,0,0,0,0,0"/>
      </g>
    </g>
  </g>
</svg>