<?xml version="1.0" encoding="UTF-8"?>
<svg id="Laag_1" data-name="Laag 1" xmlns="http://www.w3.org/2000/svg" viewBox="0 0 53.86 61.58">
  <defs>
    <style>
      .cls-1 {
        fill: #fff;
        stroke-width: 0px;
      }
    </style>
  </defs>
  <path class="cls-1" d="m18.11,30.84c0-.79-.02-1.58,0-2.38.01-.4-.12-.64-.5-.81-3.19-1.38-6.37-2.78-9.55-4.18-.4-.18-.5-.07-.49.33.02,1.02.01,2.05,0,3.07,0,.26.09.6-.26.69-.41.11-.85.16-1.26.03-.18-.06-.12-.31-.12-.47-.04-1.2-.08-2.39-.11-3.59-.04-1.45-.06-2.89-.11-4.34-.01-.39.13-.64.48-.83,2.31-1.25,4.61-2.51,6.91-3.78.33-.18.56-.27.8.15.47.87.5.91-.04,1.23-.9.53-1.79,1.07-2.7,1.58-.39.22-.4.37-.03.64,2.81,2.05,5.6,4.11,8.4,6.18.26.19.46.27.77.08,1.43-.84,2.87-1.66,4.32-2.47.33-.19.46-.41.42-.79-.38-3.41-.76-6.83-1.11-10.24-.05-.52-.17-.64-.66-.36-.9.53-1.82,1.01-2.74,1.51-.55.29-.57.25-1.07-.53-.28-.44-.06-.6.27-.8,2.2-1.36,4.4-2.72,6.59-4.1.39-.25.69-.28,1.1-.02,2.21,1.42,4.43,2.82,6.67,4.19.68.42.16.77.02,1.15-.18.5-.47.28-.77.12-.95-.52-1.9-1.03-2.85-1.56-.33-.18-.5-.19-.55.27-.36,3.42-.75,6.83-1.13,10.24-.05.43.04.72.45.94,1.41.77,2.8,1.56,4.18,2.37.33.19.58.18.89-.04,2.8-2.06,5.6-4.12,8.41-6.16.36-.26.36-.41-.04-.64-.93-.52-1.82-1.1-2.75-1.61-.73-.4-.2-.79-.06-1.19.17-.48.46-.33.78-.16,2.35,1.26,4.7,2.52,7.05,3.76.32.17.44.38.43.73-.09,2.64-.18,5.29-.25,7.93-.02.71-.49.58-.93.61-.49.03-.63-.2-.62-.66.02-1,0-2.01,0-3.01,0-.72,0-.73-.65-.45-2.9,1.27-5.78,2.59-8.71,3.78-.97.39-1.25.91-1.19,1.89.08,1.35.03,2.7.02,4.05,0,.34.08.57.43.72,3.19,1.39,6.37,2.79,9.54,4.19.39.17.47.05.47-.32,0-1.06-.01-2.12,0-3.19,0-.64.07-.65.96-.69.54-.03.65.22.67.68.07,2.59.15,5.17.25,7.75.02.5-.15.76-.59.99-2.31,1.2-4.61,2.44-6.91,3.67-.32.17-.63.32-.77-.16-.12-.4-.78-.79.03-1.22.94-.5,1.83-1.08,2.75-1.61.35-.2.47-.35.06-.64-2.86-2.08-5.71-4.17-8.55-6.26-.26-.19-.47-.2-.74-.04-1.43.84-2.87,1.67-4.31,2.49-.36.21-.37.51-.33.84.16,1.44.31,2.88.47,4.32.22,1.98.46,3.95.66,5.93.05.52.24.58.66.34.9-.52,1.81-1.03,2.73-1.53.52-.29.59-.22,1.07.54.24.39.1.57-.23.78-2.18,1.35-4.36,2.72-6.53,4.08-.44.27-.87.27-1.31,0-2.22-1.37-4.44-2.74-6.66-4.09-.51-.31-.27-.62-.06-.96.2-.32.33-.7.86-.37.91.55,1.86,1.02,2.8,1.52.5.27.58.23.65-.32.31-2.76.62-5.52.93-8.28.07-.67.14-1.34.23-2.01.05-.4-.08-.65-.43-.85-1.39-.79-2.78-1.59-4.16-2.41-.27-.16-.47-.17-.73.02-2.86,2.11-5.72,4.21-8.6,6.3-.37.27-.31.39.04.59.93.55,1.84,1.13,2.78,1.68.37.22.48.42.25.83-.48.86-.48.87-1.34.4-2.16-1.16-4.32-2.32-6.49-3.45-.48-.25-.66-.55-.64-1.09.09-2.6.16-5.21.22-7.81.01-.53.3-.59.71-.58.41.01.8-.05.85.58.09,1.04.06,2.08.07,3.12,0,.64.05.67.6.43,3.15-1.37,6.3-2.75,9.45-4.11.36-.16.49-.37.48-.75-.02-.81,0-1.62,0-2.43Z"/>
  <path class="cls-1" d="m26.98,61.58c-.36-.03-.62-.14-.88-.28-3.71-2.15-7.42-4.3-11.14-6.43-.47-.27-.54-.51-.23-.94.28-.39.53-.81.74-1.24.23-.46.47-.49.9-.24,2.45,1.43,4.92,2.84,7.38,4.25.92.53,1.85,1.04,2.76,1.59.33.2.57.16.9-.02,3.38-1.95,6.77-3.88,10.14-5.83.38-.22.58-.18.78.19.24.44.5.88.8,1.27.38.49.23.76-.26,1.03-1.6.9-3.18,1.83-4.77,2.75-2,1.16-4.01,2.32-6.01,3.49-.37.21-.74.42-1.12.41Z"/>
  <path class="cls-1" d="m26.97,0c.37-.02.66.14.95.31,3.53,2.03,7.06,4.05,10.58,6.1,1.26.73,1.03.56.42,1.61-.8,1.35-.82,1.35-2.18.58-3.07-1.73-6.15-3.47-9.21-5.23-.42-.24-.74-.26-1.16-.01-3.31,1.91-6.63,3.79-9.94,5.7-.44.26-.71.25-.95-.24-.22-.45-.48-.88-.76-1.3-.29-.43-.1-.67.26-.88,1.02-.59,2.04-1.17,3.06-1.76,2.68-1.53,5.36-3.06,8.04-4.59.29-.16.58-.32.9-.29Z"/>
  <path class="cls-1" d="m2.82,39.42c0,1.7.03,2.9-.01,4.09-.03.84.34,1.36,1.05,1.76,3.14,1.78,6.26,3.59,9.38,5.39.77.44.77.45.32,1.2-.18.3-.36.6-.53.89q-.45.75-1.24.3c-1.46-.84-2.91-1.67-4.37-2.51-2.14-1.23-4.29-2.46-6.44-3.66C.3,46.51,0,46,0,45.21c.02-4.15.01-8.3.01-12.45,0-.87.01-.88.86-.88.41,0,.81.02,1.22,0,.48-.03.65.17.65.64-.01,2.47.14,4.94.09,6.9Z"/>
  <path class="cls-1" d="m53.81,39.4c0,1.91-.02,3.82,0,5.73.01.84-.22,1.39-1.04,1.84-3.68,2.04-7.31,4.16-10.96,6.27-.4.23-.62.17-.82-.23-.24-.48-.51-.96-.8-1.41-.25-.37-.14-.56.22-.77,2.46-1.42,4.9-2.85,7.36-4.28.85-.5,1.68-1.02,2.56-1.47.54-.28.72-.62.71-1.23-.03-3.67-.01-7.33-.01-11q0-.97.94-.97s.08,0,.12,0c1.94.04,1.59-.33,1.7,1.73.11,1.92.02,3.86.02,5.79Z"/>
  <path class="cls-1" d="m53.84,22.54c0,2.05,0,4.09,0,6.14,0,.99-.03,1.01-.99,1.02-.35,0-.7,0-1.04,0-.72,0-.76-.05-.77-.75,0-1.18,0-2.36,0-3.53,0-2.68-.01-5.37.02-8.05,0-.46-.26-.59-.56-.77-3.22-1.87-6.45-3.73-9.67-5.61-1-.58-.99-.41-.37-1.44.28-.47.4-1.21.92-1.33.48-.1.95.44,1.41.7,3.38,1.94,6.76,3.9,10.14,5.83.64.36.93.84.92,1.59-.03,2.07-.01,4.13-.01,6.2h0Z"/>
  <path class="cls-1" d="m.04,22.39c0-2.12.01-4.25,0-6.37,0-.52.16-.85.62-1.11,3.81-2.17,7.61-4.35,11.39-6.54.45-.26.68-.19.9.26.22.45.48.88.77,1.29.27.38.18.58-.21.81-3.3,1.88-6.59,3.8-9.9,5.67-.57.32-.81.68-.8,1.36.03,3.69.02,7.37.02,11.06,0,.87-.02.88-.86.89-.41,0-.81-.02-1.22,0-.52.03-.71-.18-.71-.71.02-2.2,0-4.4,0-6.6Z"/>
</svg>