<?xml version="1.0" encoding="UTF-8"?>
<svg id="Laag_1" data-name="Laag 1" xmlns="http://www.w3.org/2000/svg" xmlns:xlink="http://www.w3.org/1999/xlink" viewBox="0 0 92 58">
  <defs>
    <style>
      .cls-1 {
        fill: url(#Naamloos_verloop_2);
      }

      .cls-1, .cls-2, .cls-3 {
        stroke-width: 0px;
      }

      .cls-2 {
        fill: none;
      }

      .cls-3 {
        fill: #ff0cef;
      }

      .cls-4 {
        clip-path: url(#clippath);
      }
    </style>
    <linearGradient id="Naamloos_verloop_2" data-name="Naamloos verloop 2" x1="-352.64" y1="44.43" x2="-351.61" y2="43.6" gradientTransform="translate(32450.92 2586.6) scale(92 -58)" gradientUnits="userSpaceOnUse">
      <stop offset="0" stop-color="#8f1ebf"/>
      <stop offset="1" stop-color="#480f60"/>
    </linearGradient>
    <clipPath id="clippath">
      <rect class="cls-2" x="34.63" y="5.83" width="22.73" height="45.94"/>
    </clipPath>
  </defs>
  <path id="Subtraction_11-2" data-name="Subtraction 11-2" class="cls-1" d="m68.44,58H0V23.98L23.97,0h68.03v34.44l-23.56,23.56h0Z"/>
  <g id="Group_569" data-name="Group 569">
    <g class="cls-4">
      <g id="Group_568" data-name="Group 568">
        <path id="Path_82" data-name="Path 82" class="cls-3" d="m50.54,40.1v1.29c0,2.85,0,5.69-.02,8.54.03.98-.74,1.79-1.72,1.82-.02,0-.05,0-.07,0-1.83.02-3.65.02-5.48,0-.99.01-1.8-.78-1.82-1.77,0-.05,0-.1,0-.14,0-1.88,0-3.76,0-5.64,0-1.16-.03-2.32.01-3.48.02-.52-.16-.65-.66-.63-1.12.04-2.25.02-3.37,0-1.44.1-2.7-.99-2.79-2.44-.02-.3.01-.6.09-.89.93-3.84,1.92-7.66,2.88-11.49.37-1.45.73-2.89,1.11-4.34.24-1.4,1.51-2.38,2.92-2.26h8.64c1.46-.16,2.78.86,3,2.31,1.13,4.42,2.26,8.84,3.38,13.27.19.76.4,1.53.59,2.29.47,1.41-.29,2.94-1.71,3.42-.33.11-.68.16-1.03.13-1.3,0-2.59,0-3.97,0"/>
        <path id="Path_83" data-name="Path 83" class="cls-3" d="m51.4,11.3c-.03,2.99-2.48,5.4-5.47,5.37-2.99-.03-5.4-2.48-5.37-5.47.03-2.99,2.48-5.4,5.47-5.37.02,0,.04,0,.05,0,2.98.04,5.36,2.49,5.32,5.47h0"/>
      </g>
    </g>
  </g>
</svg>